# xmcd
#
# Track frame offsets:
#	150
#	10130
#	23780
#	38180
#	55970
#	72130
#	89002
#	109906
#	133179
#	150274
#	167966
#	185114
#	199317
#	216007
#	235722
#	252744
#	262175
#	276082
#	292047
#	305711
#
# Disc length: 4346
#
# Revision: 1
# Processed by: cddbd v1.5.1PL0 Copyright (c) Steve Scherf et al.
# Submitted via: dBpowerAMP V4.0
# Normalized: r0:DSETVAR1,TDELIM( - )
#
DISCID=3710f814
DTITLE=Various Artist - Beautiful Moments (Vol. 1)
DYEAR=2004
DGENRE=Country
TTITLE0=John Prine and Iris Dement - Let's Invite Them Over
TTITLE1=Ginny Hawker - The Day I Lose My Mind
TTITLE2=Doug Sahm - You Was For Real
TTITLE3=Susan McCann - Rose Of My Heart
TTITLE4=Patty Loveless and Travis Tritt - Out Of Control, Raging Fire
TTITLE5=Slim Dusty and Kasey Chambers - Matilda No More
TTITLE6=Colt 45 - We'll Meet Again
TTITLE7=Lucinda Williams - Cold Cold Heart
TTITLE8=Jimmie Dale Gilmore - Blue Shadows
TTITLE9=Jann Browne - Mexican Wind
TTITLE10=Dwight Yoakam - It Won't Hurt
TTITLE11=Kimmie Rhodes - Wild Roses
TTITLE12=Iris Dement - These Hills
TTITLE13=The Derailers - Play Me The Waltz Of The Angels
TTITLE14=Tish Hinojosa - Dejamo Ilorar
TTITLE15=Rice, Rice, Hillman and Pedersen - You're Running Wild
TTITLE16=Joni Harms - West Texas Waltz
TTITLE17=George Strait - I Just Want To Dance With You
TTITLE18=Kristi Rose - All The Right Reasons
TTITLE19=Chieftains and Martina McBride - I'll Be All Smiles Tonight
EXTD=
EXTT0=
EXTT1=
EXTT2=
EXTT3=
EXTT4=
EXTT5=
EXTT6=
EXTT7=
EXTT8=
EXTT9=
EXTT10=
EXTT11=
EXTT12=
EXTT13=
EXTT14=
EXTT15=
EXTT16=
EXTT17=
EXTT18=
EXTT19=
PLAYORDER=
